<svg xmlns="http://www.w3.org/2000/svg" class="custom-logo" width="309.97" height="47.24" viewBox="0 0 309.97 47.24"><path d="M301.57,11V5.23s-.74-3.7-5.54-4.07-289.64,0-289.64,0S1.59.43,1.22,5.23s-.16,37.15-.16,37.15S1,46.33,6.52,46.13c3.36-.12,294.73.1,294.73.1V38.51" style="fill:none;stroke:#fff;stroke-miterlimit:10;stroke-width:2px"/><path d="M6.17,32.57v-17A1,1,0,0,0,6,14.91a1.5,1.5,0,0,0-.74-.39v-.47h6.27v.47a1.42,1.42,0,0,0-.74.38,1,1,0,0,0-.2.68v17a1,1,0,0,0,.21.7,1.35,1.35,0,0,0,.73.37v.47H5.22v-.47A1.42,1.42,0,0,0,6,33.26,1,1,0,0,0,6.17,32.57Z" style="fill:#fff"/><path d="M19.66,31.13h9.21a1.09,1.09,0,0,0,.71-.2,1.58,1.58,0,0,0,.39-.74h.4v4.86H30a1.42,1.42,0,0,0-.38-.73,1.09,1.09,0,0,0-.72-.21H14.78V33.7a1.43,1.43,0,0,0,.73-.38,1.06,1.06,0,0,0,.21-.7V19.15a1,1,0,0,0-.21-.69,1.54,1.54,0,0,0-.73-.39v-.42H20.6v.42a1.39,1.39,0,0,0-.74.39,1.07,1.07,0,0,0-.2.69Z" style="fill:#fff"/><path d="M37,31.13h9.22a1.08,1.08,0,0,0,.7-.2,1.58,1.58,0,0,0,.4-.74h.4v4.86h-.4a1.5,1.5,0,0,0-.39-.73,1.06,1.06,0,0,0-.71-.21H32.12V33.7a1.35,1.35,0,0,0,.73-.38,1.06,1.06,0,0,0,.21-.7V19.15a1.07,1.07,0,0,0-.2-.69,1.63,1.63,0,0,0-.74-.39v-.42h5.82v.42a1.32,1.32,0,0,0-.73.39,1,1,0,0,0-.21.69Z" style="fill:#fff"/><path d="M54.34,27.12v4H64.79a1.08,1.08,0,0,0,.7-.2,1.5,1.5,0,0,0,.39-.74h.41v4.86h-.41a1.36,1.36,0,0,0-.38-.72,1.08,1.08,0,0,0-.71-.22H49.47V33.7a1.36,1.36,0,0,0,.72-.38,1.07,1.07,0,0,0,.22-.7V19.15a1,1,0,0,0-.21-.69,1.59,1.59,0,0,0-.73-.39v-.42H64.34a1.06,1.06,0,0,0,.71-.2,1.5,1.5,0,0,0,.39-.74h.4v4.87h-.4a1.5,1.5,0,0,0-.39-.74,1.11,1.11,0,0,0-.71-.2h-10v3.61h6.21a1.07,1.07,0,0,0,.69-.2,1.5,1.5,0,0,0,.41-.74h.4v4.75h-.4a1.5,1.5,0,0,0-.39-.73,1.06,1.06,0,0,0-.71-.21Z" style="fill:#fff"/><path d="M83.68,27.77H79.93a1.06,1.06,0,0,0-.71.2,1.5,1.5,0,0,0-.39.74h-.4V24.34h.4a1.5,1.5,0,0,0,.39.73,1.06,1.06,0,0,0,.71.21h7.84v.43a1.37,1.37,0,0,0-.73.42,1.33,1.33,0,0,0-.22.8V30.4a1,1,0,0,0,.22.7,1.43,1.43,0,0,0,.73.4v.34a19.55,19.55,0,0,1-9.5,2.63,10.57,10.57,0,0,1-6.61-1.93,8.21,8.21,0,0,1-2.21-2.61,8.41,8.41,0,0,1-1-4,8.12,8.12,0,0,1,1.79-5.17c1.86-2.33,4.62-3.5,8.26-3.5A16.94,16.94,0,0,1,84,18.36a8.9,8.9,0,0,0,1.42.41,1.11,1.11,0,0,0,.59-.23l.35.19-2,4.14L84,22.7v-.09c0-.37-.36-.74-1.09-1.12a9.09,9.09,0,0,0-4.32-1.07,6.48,6.48,0,0,0-4.36,1.45A5.15,5.15,0,0,0,72.48,26a5,5,0,0,0,1.63,3.88,6.87,6.87,0,0,0,4.71,1.48,10.15,10.15,0,0,0,4.86-1.07Z" style="fill:#fff"/><path d="M102.55,30H95l-.86,1.79a2.68,2.68,0,0,0-.31,1c0,.47.32.77,1,.89v.41H88.71V33.7a1.56,1.56,0,0,0,.83-.34,3.62,3.62,0,0,0,.64-1l6-12.17a2.9,2.9,0,0,0,.34-1.2c0-.4-.28-.72-.83-.94v-.42h6.4v.42a1.06,1.06,0,0,0-.81,1,2.76,2.76,0,0,0,.36,1.19l6.24,11.8a5.84,5.84,0,0,0,.8,1.24,1.71,1.71,0,0,0,.9.4v.41h-6.72V33.7c.63-.1.95-.4.95-.89a2.46,2.46,0,0,0-.37-1.13Zm-1.19-2.31-2.7-5.29L96.1,27.69Z" style="fill:#fff"/><path d="M115.9,31.13h9.21a1.11,1.11,0,0,0,.71-.2,1.58,1.58,0,0,0,.39-.74h.4v4.86h-.4a1.36,1.36,0,0,0-.39-.73,1.06,1.06,0,0,0-.71-.21H111V33.7a1.36,1.36,0,0,0,.72-.38,1,1,0,0,0,.22-.7V19.15a1,1,0,0,0-.21-.69,1.59,1.59,0,0,0-.73-.39v-.42h5.82v.42a1.35,1.35,0,0,0-.74.39,1.07,1.07,0,0,0-.2.69Z" style="fill:#fff"/><path d="M154.18,23.61a4.7,4.7,0,0,1,3.38,4.73,5.15,5.15,0,0,1-2,4.3,6.24,6.24,0,0,1-2.31,1.13,13.06,13.06,0,0,1-3.25.34H136.31v-.47a1.42,1.42,0,0,0,.74-.38,1,1,0,0,0,.2-.69v-17a1,1,0,0,0-.2-.69,1.5,1.5,0,0,0-.74-.39v-.47h13.58a13.35,13.35,0,0,1,3.15.3,5.3,5.3,0,0,1,2.08,1,4.79,4.79,0,0,1,1.78,4A4.39,4.39,0,0,1,154.18,23.61ZM141.63,22h7.69a4.28,4.28,0,0,0,2.44-.51,2.13,2.13,0,0,0,.78-1.82,2.06,2.06,0,0,0-.74-1.8,4.29,4.29,0,0,0-2.48-.54h-7.69Zm0,8.78h7.44a5.71,5.71,0,0,0,3-.58,2.36,2.36,0,0,0,1-2.16,2.38,2.38,0,0,0-1-2.16,5.78,5.78,0,0,0-3-.57h-7.44Z" style="fill:#fff"/><path d="M172.74,30h-7.57l-.85,1.79a2.51,2.51,0,0,0-.31,1c0,.47.31.77.94.89v.41h-6V33.7a1.52,1.52,0,0,0,.83-.34,3.4,3.4,0,0,0,.64-1l6-12.17a2.75,2.75,0,0,0,.34-1.2c0-.4-.27-.72-.82-.94v-.42h6.39v.42a1.06,1.06,0,0,0-.81,1,2.79,2.79,0,0,0,.37,1.19l6.23,11.8a5.4,5.4,0,0,0,.81,1.24,1.68,1.68,0,0,0,.9.4v.41h-6.73V33.7c.64-.1,1-.4,1-.89a2.58,2.58,0,0,0-.37-1.13Zm-1.18-2.31-2.7-5.29-2.57,5.29Z" style="fill:#fff"/><path d="M185.74,23.27V32.6a1.07,1.07,0,0,0,.21.71,1.47,1.47,0,0,0,.73.39v.41h-5.47V33.7a1.35,1.35,0,0,0,.73-.38,1.06,1.06,0,0,0,.21-.7V19.15a1,1,0,0,0-.2-.69,1.58,1.58,0,0,0-.74-.39v-.42h6.33v.42c-.44.1-.65.29-.65.57a1.3,1.3,0,0,0,.47.82l8.83,8.76V19.15a1,1,0,0,0-.21-.69,1.32,1.32,0,0,0-.73-.39v-.42h5.47v.42a1.42,1.42,0,0,0-.74.38,1.06,1.06,0,0,0-.21.7V32.6a1,1,0,0,0,.21.7,1.5,1.5,0,0,0,.74.4v.41h-5.9V33.7c.43-.08.65-.26.65-.54a.69.69,0,0,0-.18-.42c-.12-.15-.39-.43-.81-.86Z" style="fill:#fff"/><path d="M210.88,26.62l-2.34,1.9V32.6a1,1,0,0,0,.2.7,1.5,1.5,0,0,0,.74.4v.41h-5.82V33.7a1.36,1.36,0,0,0,.72-.38,1,1,0,0,0,.22-.7V19.15a1,1,0,0,0-.21-.69,1.59,1.59,0,0,0-.73-.39v-.42h5.82v.42a1.35,1.35,0,0,0-.74.39,1,1,0,0,0-.2.69v5.4l6.19-4.94q.69-.54.69-1c0-.29-.28-.49-.85-.58v-.42H222v.42a2.32,2.32,0,0,0-.94.33c-.24.17-.86.68-1.85,1.53l-5.54,4.44,6.09,7a16.2,16.2,0,0,0,1.69,1.77,2.7,2.7,0,0,0,1.17.55v.41h-7.21V33.7c.54-.12.81-.32.81-.58a.5.5,0,0,0-.1-.28,9.7,9.7,0,0,0-.68-.81Z" style="fill:#fff"/><path d="M237.61,25.34v7.23a1,1,0,0,0,.21.7,1.39,1.39,0,0,0,.73.37v.47h-6.26v-.47a1.42,1.42,0,0,0,.73-.38,1,1,0,0,0,.21-.69v-17a1,1,0,0,0-.21-.69,1.5,1.5,0,0,0-.73-.39v-.47H250a1,1,0,0,0,.68-.2,1.53,1.53,0,0,0,.38-.74h.47V18.3h-.47a1.58,1.58,0,0,0-.38-.74,1.06,1.06,0,0,0-.68-.2H237.61v4.79h8.12a1,1,0,0,0,.69-.21,1.5,1.5,0,0,0,.39-.73h.47v5.07h-.47a1.5,1.5,0,0,0-.39-.73,1,1,0,0,0-.69-.21Z" style="fill:#fff"/><path d="M258.79,27.12v4h10.45a1.07,1.07,0,0,0,.69-.2,1.5,1.5,0,0,0,.39-.74h.41v4.86h-.41a1.36,1.36,0,0,0-.38-.72,1.07,1.07,0,0,0-.7-.22H253.91V33.7a1.36,1.36,0,0,0,.72-.38,1,1,0,0,0,.22-.7V19.15a1,1,0,0,0-.21-.69,1.54,1.54,0,0,0-.73-.39v-.42h14.87a1.06,1.06,0,0,0,.71-.2,1.5,1.5,0,0,0,.39-.74h.4v4.87h-.4a1.5,1.5,0,0,0-.39-.74,1.11,1.11,0,0,0-.71-.2h-10v3.61H265a1.12,1.12,0,0,0,.7-.2,1.58,1.58,0,0,0,.4-.74h.4v4.75h-.4a1.5,1.5,0,0,0-.39-.73,1.06,1.06,0,0,0-.71-.21Z" style="fill:#fff"/><path d="M278.16,27.12v4h10.45a1.07,1.07,0,0,0,.69-.2,1.35,1.35,0,0,0,.39-.74h.42v4.86h-.42a1.29,1.29,0,0,0-.38-.72,1,1,0,0,0-.7-.22H273.28V33.7a1.43,1.43,0,0,0,.73-.38,1.06,1.06,0,0,0,.21-.7V19.15a1,1,0,0,0-.21-.69,1.54,1.54,0,0,0-.73-.39v-.42h14.87a1.06,1.06,0,0,0,.71-.2,1.35,1.35,0,0,0,.39-.74h.4v4.87h-.4a1.35,1.35,0,0,0-.39-.74,1.11,1.11,0,0,0-.71-.2h-10v3.61h6.2a1.1,1.1,0,0,0,.7-.2,1.58,1.58,0,0,0,.4-.74h.4v4.75h-.4a1.5,1.5,0,0,0-.39-.73,1.06,1.06,0,0,0-.71-.21Z" style="fill:#fff"/><path d="M302.65,23.59l.46,0A10.55,10.55,0,0,1,308,25a4.06,4.06,0,0,1,1.39,1.59,4.84,4.84,0,0,1-.52,5.15,6.46,6.46,0,0,1-3,2,11.56,11.56,0,0,1-3.28.64v.82a.87.87,0,0,0,.18.59,1.31,1.31,0,0,0,.64.32v.41h-3.59v-.41a1.31,1.31,0,0,0,.64-.32.87.87,0,0,0,.18-.59v-.82a17.29,17.29,0,0,1-6.35-1.8,1.17,1.17,0,0,0-.45-.14,1.07,1.07,0,0,0-.53.28l-.38-.18,1.92-4.21.37.17v.17a1.53,1.53,0,0,0,.82,1.23,8.73,8.73,0,0,0,2.14,1,10.85,10.85,0,0,0,2.46.52V27.14a25.89,25.89,0,0,1-2.83-.38,7.38,7.38,0,0,1-1.77-.6,4.23,4.23,0,0,1-1.85-1.7,4.49,4.49,0,0,1-.61-2.34,4.69,4.69,0,0,1,1.89-3.89,8.66,8.66,0,0,1,5.17-1.57V16a.86.86,0,0,0-.18-.58,1.4,1.4,0,0,0-.64-.33v-.4h3.59v.4a1.44,1.44,0,0,0-.65.33.91.91,0,0,0-.17.58v.68a12.58,12.58,0,0,1,2.49.45,33.11,33.11,0,0,1,3.29,1.19,1.34,1.34,0,0,0,.53.14,1,1,0,0,0,.63-.29l.38.19-2.12,4-.37-.2a1.5,1.5,0,0,0,0-.2c0-.43-.56-.92-1.66-1.46a8.92,8.92,0,0,0-3.19-.92Zm-1.95-.21V19.6a7.91,7.91,0,0,0-1.77.3,2.93,2.93,0,0,0-1.25.75,1.6,1.6,0,0,0-.47,1.1,1.16,1.16,0,0,0,.32.8,1.78,1.78,0,0,0,.88.5A12.69,12.69,0,0,0,300.7,23.38Zm1.95,4v4.09a6.93,6.93,0,0,0,2.08-.52A2.14,2.14,0,0,0,306.2,29a1.18,1.18,0,0,0-.26-.75,1.37,1.37,0,0,0-.68-.48A12.79,12.79,0,0,0,302.65,27.35Z" style="fill:#fff"/></svg>